<?xml version="1.0" encoding="utf-8"?>
<!-- Generator: Adobe Illustrator 19.0.0, SVG Export Plug-In . SVG Version: 6.00 Build 0)  -->
<svg version="1.1" id="Layer_1" xmlns="http://www.w3.org/2000/svg" xmlns:xlink="http://www.w3.org/1999/xlink" x="0px" y="0px"
	 viewBox="0 0 35 59" style="enable-background:new 0 0 35 59;" xml:space="preserve">
<style type="text/css">
	.st0{clip-path:url(#SVGID_2_);fill:#30333C;}
</style>
<g>
	<defs>
		<rect id="SVGID_1_" width="35" height="59"/>
	</defs>
	<clipPath id="SVGID_2_">
		<use xlink:href="#SVGID_1_"  style="overflow:visible;"/>
	</clipPath>
	<path class="st0" d="M31.2,59H3.8C1.7,59,0,57.3,0,55.2V3.8C0,1.7,1.7,0,3.8,0h27.3C33.3,0,35,1.7,35,3.8v51.3
		C35,57.3,33.3,59,31.2,59 M3.8,2C2.8,2,2,2.8,2,3.8v51.3c0,1,0.8,1.8,1.8,1.8h27.3c1,0,1.8-0.8,1.8-1.8V3.8c0-1-0.8-1.8-1.8-1.8
		H3.8z"/>
	<path class="st0" d="M34,13.1L34,13.1l-33,0c-0.6,0-1-0.4-1-1V3.8C0,1.7,1.7,0,3.8,0h27.3C33.3,0,35,1.7,35,3.8v8.2
		c0,0.3-0.1,0.5-0.3,0.7C34.5,13,34.3,13.1,34,13.1 M2,11.1l31,0V3.8c0-1-0.8-1.8-1.8-1.8H3.8C2.8,2,2,2.8,2,3.8V11.1z"/>
	<path class="st0" d="M34,13.1L34,13.1l-33,0c-0.6,0-1-0.4-1-1V3.8C0,1.7,1.7,0,3.8,0h27.3C33.3,0,35,1.7,35,3.8v8.2
		c0,0.3-0.1,0.5-0.3,0.7C34.5,13,34.3,13.1,34,13.1 M2,11.1l31,0V3.8c0-1-0.8-1.8-1.8-1.8H3.8C2.8,2,2,2.8,2,3.8V11.1z"/>
	<path class="st0" d="M31.2,59H3.8C1.7,59,0,57.3,0,55.2v-8.2c0-0.6,0.4-1,1-1l33,0c0.3,0,0.5,0.1,0.7,0.3c0.2,0.2,0.3,0.4,0.3,0.7
		v8.2C35,57.3,33.3,59,31.2,59 M2,47.9v7.2c0,1,0.8,1.8,1.8,1.8h27.3c1,0,1.8-0.8,1.8-1.8v-7.2L2,47.9z"/>
	<path class="st0" d="M19,52.5c0,0.8-0.7,1.5-1.5,1.5c-0.8,0-1.5-0.7-1.5-1.5c0-0.8,0.7-1.5,1.5-1.5C18.3,51,19,51.7,19,52.5"/>
	<path class="st0" d="M25,7c0,0.6-0.4,1-1,1H11c-0.6,0-1-0.4-1-1c0-0.6,0.4-1,1-1h13C24.6,6,25,6.4,25,7"/>
</g>
</svg>
